<svg xmlns="http://www.w3.org/2000/svg" width="551.503" height="748.796" viewBox="0 0 551.503 748.796">
  <g id="_5_logo" data-name="5 logo" transform="translate(-0.788)">
    <path id="Path_1" data-name="Path 1"
      d="M568.737,0h.443c-.063,12.662-.04,25.33-.029,37.992,1.14,19.16.317,38.372.576,57.555,1.232,18.383.178,36.835.656,55.247,1.059,9.151.271,18.395.46,27.586q-227.876.147-455.764.052c15.741-33.273,32.26-66.183,47.852-99.525,11.5,2.331,22.976,5.215,34.585,7.206a544.165,544.165,0,0,0,69.458,7.131c18.429-.115,36.882.506,55.253-1.105,70.759-4.6,140.855-24.76,201.818-61.285C539.517,21.451,554.78,11.569,568.737,0Z"
      transform="translate(-48.511)" fill="#428074" />
    <path id="Path_2" data-name="Path 2"
      d="M49.907,374.03q111.327-.181,222.665-.052c13.238.075,26.527-.478,39.7,1.2a261.9,261.9,0,0,1,97.81,29.382,267.459,267.459,0,0,1,124.51,140.827c10.613,26.89,15.661,55.645,17.7,84.382v21.963c-1.565,16.1-2.884,32.312-6.82,48.065A267.015,267.015,0,0,1,444.76,854.646a258.99,258.99,0,0,1-85.9,42.493c-20.041,6.193-40.979,8.5-61.786,10.377H274.586a5.058,5.058,0,0,0-2.584-.6,263.442,263.442,0,0,1-131.813-43.132A266.563,266.563,0,0,1,23.069,682.124a273.68,273.68,0,0,1,7.776-117.638,1.389,1.389,0,0,1,1.709-1.151q69.075-.009,138.15-.012c3.862-2.13,2.9.99,2.527,2.5-7.966,25.278-6.734,52.962,1.709,77.936,12.11,34.873,40.323,63.708,75.018,76.393,28.519,10.843,60.986,10.193,89.315-.944a125.144,125.144,0,0,0,55.242-42.585c19.126-25.992,27.874-59.472,23.229-91.484-4.121-32.974-22.291-63.725-48.813-83.657-11.344-8.99-24.593-15.166-38.205-19.862-13.272-3.591-27.1-6.417-40.893-5.272-95.352.178-190.71.023-286.062.075C-.575,478.314.95,476.052,1.5,474.7Q25.48,424.264,49.907,374.03Z"
      transform="translate(0 -158.721)" fill="#428074" />
  </g>
</svg>
