<svg height="480pt" viewBox="-64 0 480 480.0001" width="480pt" xmlns="http://www.w3.org/2000/svg"><path d="m8 8h32v448c0 8.835938-7.164062 16-16 16s-16-7.164062-16-16zm0 0" fill="#7d4739"/><path d="m170.761719 92.703125-61.523438-57.40625c-18.785156-17.542969-43.535156-27.296875-69.238281-27.296875h-32v224h32c25.703125 0 50.453125 9.753906 69.238281 27.296875l1.890625 1.757813c21.996094 20.527343 51.964844 30.238281 81.820313 26.507812 29.855469-3.726562 56.515625-20.511719 72.785156-45.820312l78.265625-121.742188h-104c-25.703125 0-50.449219-9.753906-69.238281-27.296875zm0 0" fill="#6fb944"/><path d="m0 8v448c0 13.253906 10.746094 24 24 24s24-10.746094 24-24v-215.625c20.855469 1.761719 40.507812 10.496094 55.785156 24.800781l1.886719 1.761719c20.226563 18.925781 46.898437 29.453125 74.601563 29.445312 4.570312 0 9.136718-.28125 13.671874-.847656 32.21875-3.984375 60.996094-22.101562 78.519532-49.429687l78.261718-121.746094c1.601563-2.460937 1.726563-5.605469.320313-8.183594-1.402344-2.582031-4.109375-4.183593-7.046875-4.175781h-104c-23.683594.03125-46.492188-8.960938-63.785156-25.144531l-61.519532-57.40625c-20.25-18.957031-46.957031-29.4843752-74.695312-29.449219h-32c-4.417969 0-8 3.582031-8 8zm48 8.375c20.855469 1.761719 40.507812 10.496094 55.785156 24.800781l61.519532 57.410157c20.253906 18.941406 46.960937 29.460937 74.695312 29.414062h89.34375l-70.34375 109.417969c-14.984375 23.3125-39.539062 38.773437-67.039062 42.207031-27.496094 3.4375-55.101563-5.507812-75.359376-24.417969l-1.898437-1.757812c-18.246094-17.046875-41.792969-27.308594-66.703125-29.074219zm-32-.375h16v208h-16zm0 224h16v216c0 4.417969-3.582031 8-8 8s-8-3.582031-8-8zm0 0"/></svg>